<svg xmlns="http://www.w3.org/2000/svg" width="800" height="800" viewBox="0 0 800 800"><title>Oval 58 + Rectangle 77 + Rectangle 77 Copy 3</title><linearGradient id="a" gradientUnits="userSpaceOnUse" x1="506.5" y1="604.5" x2="506.5" y2="-195.5" gradientTransform="matrix(1 0 0 -1 -106 605)"><stop offset="0" stop-color="#FFF"/><stop offset="1" stop-color="#ececec"/></linearGradient><path fill="url(#a)" d="M769.034 244.777c-20.15-47.64-48.982-90.41-85.69-127.12-36.71-36.71-79.48-65.54-127.12-85.69C506.856 11.087 454.464.5 400.5.5c-53.965 0-106.357 10.587-155.723 31.467-47.642 20.15-90.412 48.98-127.12 85.69-36.71 36.71-65.54 79.48-85.69 127.12C11.086 294.143.5 346.535.5 400.5c0 53.964 10.587 106.355 31.466 155.724 20.15 47.642 48.98 90.406 85.69 127.12 36.71 36.708 79.48 65.536 127.12 85.688 49.367 20.88 101.76 31.468 155.724 31.468 53.964 0 106.356-10.59 155.724-31.47 47.642-20.15 90.41-48.978 127.12-85.687 36.708-36.714 65.54-79.48 85.69-127.12 20.88-49.37 31.466-101.76 31.466-155.724 0-53.965-10.586-106.357-31.466-155.723zM480.5 90.582V710.42c-17.255 4.44-35.08 7.46-53.333 8.966V81.616c18.252 1.505 36.078 4.525 53.333 8.966zM80.5 400.5c0-176.73 143.268-320 320-320v640c-176.732 0-320-143.27-320-320zm480 277.18V123.32c95.646 55.33 160 158.737 160 277.178 0 118.444-64.354 221.85-160 277.182z"/></svg>